<svg width="28" height="29" viewBox="0 0 28 29" fill="none" xmlns="http://www.w3.org/2000/svg">
<path d="M12.5249 8.14177C12.5249 9.98451 14.0241 11.4837 15.8669 11.4837C17.7096 11.4837 19.2088 9.98451 19.2088 8.14177C19.2088 6.29902 17.7096 4.7998 15.8669 4.7998C14.0241 4.7998 12.5249 6.29897 12.5249 8.14177ZM18.3592 8.14177C18.3592 9.51604 17.2411 10.6341 15.8669 10.6341C14.4925 10.6341 13.3745 9.51604 13.3745 8.14177C13.3745 6.7675 14.4925 5.64941 15.8669 5.64941C17.2411 5.64941 18.3592 6.76744 18.3592 8.14177Z" fill="#DDDDDD"/>
<path d="M15.8668 2.34082C12.6655 2.34082 10.0657 4.93462 10.0657 8.14195C10.0645 8.98114 10.2462 9.84366 10.6372 10.6568C10.6377 10.6568 10.6377 10.6574 10.6377 10.6574L14.9475 19.8643C15.1183 20.2346 15.4883 20.4494 15.8566 20.4494H15.877C16.2447 20.4494 16.6137 20.2352 16.7861 19.8649L21.0959 10.6574C21.0959 10.6574 21.0959 10.6574 21.0959 10.6568C21.1939 10.4472 21.1039 10.1952 20.896 10.0949C20.682 9.9911 20.4286 10.0856 20.329 10.292C20.3284 10.292 20.3284 10.2926 20.3284 10.2926L16.0169 19.5041C15.9536 19.6317 15.7802 19.6319 15.7167 19.5041C15.7134 19.4969 11.4087 10.2996 11.4052 10.2926C11.0802 9.61914 10.9153 8.89584 10.9147 8.14195C10.916 5.39783 13.1367 3.19043 15.8669 3.19043C18.6102 3.19043 20.8201 5.43935 20.8184 8.14252V8.16064C20.8178 8.28809 20.8127 8.41609 20.8025 8.54127C20.7837 8.77576 20.9592 8.97961 21.1922 8.99836C21.4245 9.01722 21.6299 8.84469 21.6499 8.60867C21.6612 8.46197 21.6675 8.31244 21.668 8.16404V8.14252C21.6656 4.94357 19.0531 2.34082 15.8668 2.34082V2.34082Z" fill="#DDDDDD"/>
<path d="M8.78662 23.1006V25.5928C8.78662 26.0769 9.18044 26.4707 9.66455 26.4707H22.0688C22.553 26.4707 22.9468 26.0769 22.9468 25.5928V23.1006C22.9468 22.6165 22.553 22.2227 22.0688 22.2227H9.66455C9.18044 22.2227 8.78662 22.6165 8.78662 23.1006ZM22.0972 23.1006V25.5928C22.0972 25.6084 22.0844 25.6211 22.0688 25.6211H9.66455C9.64897 25.6211 9.63623 25.6084 9.63623 25.5928V23.1006C9.63623 23.085 9.64897 23.0723 9.66455 23.0723H22.0688C22.0844 23.0723 22.0972 23.085 22.0972 23.1006Z" fill="#DDDDDD"/>
<path d="M27.8253 3.45508C27.8253 2.75234 27.2535 2.18066 26.5509 2.18066H25.3273V1.3063C25.3273 0.586004 24.7412 0 24.0209 0H12.6928C12.4582 0 12.268 0.190199 12.268 0.424805C12.268 0.65941 12.4582 0.849609 12.6928 0.849609H24.0209C24.2728 0.849609 24.4776 1.05448 24.4776 1.3063V27.6936C24.4776 27.9455 24.2728 28.1503 24.0209 28.1503H7.25583V0.849609H10.7104C10.9451 0.849609 11.1352 0.65941 11.1352 0.424805C11.1352 0.190199 10.9451 0 10.7104 0H6.83103H3.18734C2.46698 0 1.88092 0.586004 1.88092 1.3063V2.90442H1.51202C0.678271 2.90442 0 3.58275 0 4.41644C0 5.25013 0.678328 5.92846 1.51202 5.92846H1.88092V7.9021H1.51202C0.678271 7.9021 0 8.58037 0 9.41412C0 10.2479 0.678328 10.9261 1.51202 10.9261H1.88092V12.8998H1.51202C0.678271 12.8998 0 13.5781 0 14.4118C0 15.2455 0.678328 15.9238 1.51202 15.9238H1.88092V17.8975H1.51202C0.678271 17.8975 0 18.5758 0 19.4095C0 20.2432 0.678328 20.9215 1.51202 20.9215H1.88092V22.8951H1.51202C0.678271 22.8951 0 23.5734 0 24.4071C0 25.2408 0.678328 25.9191 1.51202 25.9191H1.88092V27.6936C1.88092 28.4139 2.46698 28.9999 3.18728 28.9999H24.0209C24.7412 28.9999 25.3272 28.4139 25.3272 27.6936V26.8193H26.5508C27.2535 26.8193 27.8252 26.2477 27.8252 25.5449V21.2969C27.8252 20.9707 27.7019 20.6729 27.4996 20.4473C27.7019 20.2216 27.8252 19.9238 27.8252 19.5977V15.3496C27.8252 15.0235 27.7019 14.7257 27.4996 14.5C27.7019 14.2743 27.8252 13.9765 27.8252 13.6504V9.40234C27.8252 9.07621 27.7019 8.77839 27.4996 8.55273C27.7019 8.32708 27.8252 8.02926 27.8252 7.70312V3.45508H27.8253ZM0.849609 4.4165C0.849609 4.05122 1.14675 3.75408 1.51202 3.75408C4.48803 3.75408 4.33318 3.72769 4.51794 3.82817C4.70904 3.93211 4.83909 4.13477 4.83909 4.36722V4.46577C4.83909 4.69823 4.7091 4.90089 4.51794 5.00482C4.33312 5.10536 4.48781 5.07891 1.51202 5.07891C1.14675 5.07891 0.849609 4.78171 0.849609 4.4165V4.4165ZM0.849609 9.41412C0.849609 9.04885 1.14675 8.75171 1.51202 8.75171H4.2259C5.04232 8.75171 5.04832 10.0765 4.2259 10.0765C3.58682 10.0765 2.06642 10.0765 1.51202 10.0765C1.14675 10.0766 0.849609 9.7794 0.849609 9.41412V9.41412ZM0.849609 14.4119C0.849609 14.0466 1.14675 13.7495 1.51202 13.7495H4.2259C5.04232 13.7495 5.04832 15.0743 4.2259 15.0743C3.58682 15.0743 2.06642 15.0743 1.51202 15.0743C1.14675 15.0743 0.849609 14.7771 0.849609 14.4119V14.4119ZM0.849609 19.4096C0.849609 19.0443 1.14675 18.7471 1.51202 18.7471H4.2259C5.04232 18.7471 5.04832 20.072 4.2259 20.072C3.58682 20.072 2.06642 20.072 1.51202 20.072C1.14675 20.072 0.849609 19.7748 0.849609 19.4096V19.4096ZM0.849609 24.4072C0.849609 24.042 1.14675 23.7448 1.51202 23.7448H4.2259C5.04232 23.7448 5.04832 25.0697 4.2259 25.0697C3.58682 25.0697 2.06642 25.0697 1.51202 25.0697C1.14675 25.0697 0.849609 24.7725 0.849609 24.4072V24.4072ZM2.73053 27.6937V25.9193H4.2259C5.03246 25.9193 5.68864 25.2631 5.68864 24.4565C5.68864 24.1573 5.6601 23.8859 5.45755 23.5703C5.19729 23.1647 4.74263 22.8952 4.2259 22.8952H2.73053V20.9216H4.2259C5.03246 20.9216 5.68864 20.2654 5.68864 19.4588V19.3602C5.68864 18.5537 5.03246 17.8975 4.2259 17.8975H2.73053V15.9238H4.2259C4.95492 15.9238 5.68864 15.378 5.68864 14.3625C5.68864 13.556 5.03246 12.8998 4.2259 12.8998H2.73053V10.9261H4.2259C4.95492 10.9261 5.68864 10.3803 5.68864 9.36485C5.68864 8.5584 5.03258 7.90216 4.2259 7.90216H2.73053V5.92852H4.2259C4.95339 5.92852 5.68864 5.3842 5.68864 4.36716C5.68864 3.5606 5.03241 2.90442 4.2259 2.90442H2.73053V1.3063C2.73053 1.05448 2.93546 0.849609 3.18728 0.849609H6.40617V28.1504H3.18728C2.93546 28.1504 2.73053 27.9455 2.73053 27.6937V27.6937ZM26.5509 3.03027C26.7851 3.03027 26.9757 3.22081 26.9757 3.45508V7.70312C26.9757 7.93739 26.7851 8.12793 26.5509 8.12793H25.3273V3.03027H26.5509ZM26.9757 9.40234V13.6504C26.9757 13.8847 26.7851 14.0752 26.5509 14.0752H25.3273V14.0115V8.97754H26.5509C26.7851 8.97754 26.9757 9.16808 26.9757 9.40234ZM26.9757 15.3496V19.5977C26.9757 19.8319 26.7851 20.0225 26.5509 20.0225H25.3273C25.3273 19.4931 25.3273 15.51 25.3273 14.9248H26.5509C26.7851 14.9248 26.9757 15.1153 26.9757 15.3496ZM26.9757 25.5449C26.9757 25.7792 26.7851 25.9697 26.5509 25.9697H25.3273V20.8721H26.5509C26.7851 20.8721 26.9757 21.0626 26.9757 21.2969V25.5449Z" fill="#DDDDDD"/>
</svg>
