<svg width="34" height="34" viewBox="0 0 34 34" fill="none" xmlns="http://www.w3.org/2000/svg">
<path d="M0.566667 0H15.3C15.6129 0 15.8667 0.253725 15.8667 0.566667V9.06667C15.8667 9.37961 15.6129 9.63333 15.3 9.63333C14.9871 9.63333 14.7333 9.37961 14.7333 9.06667V1.13333H1.13333V32.8667H33.4333C33.7463 32.8667 34 33.1204 34 33.4333C34 33.7463 33.7463 34 33.4333 34H0.566667C0.253725 34 2.38419e-07 33.7463 2.38419e-07 33.4333V0.566667C2.38419e-07 0.253725 0.253725 0 0.566667 0Z" fill="#DDDDDD"/>
<path d="M18.4497 21.231L14.6904 19.323C13.7174 18.8219 13.3246 17.6341 13.807 16.6517C14.0398 16.176 14.4545 15.8141 14.9573 15.6476C15.454 15.4815 15.9967 15.5224 16.4629 15.7609L18.6163 16.8518L19.3484 15.617C17.2633 15.1189 15.9768 13.0247 16.4749 10.9396C16.973 8.85448 19.0672 7.568 21.1523 8.0661C23.2374 8.5642 24.5239 10.6584 24.0258 12.7435C23.9848 12.9151 23.9321 13.0839 23.8682 13.2483L28.5035 15.2067C29.1059 15.4425 29.5558 15.9569 29.7093 16.5854L30.6494 20.3934C30.9133 21.4562 30.2731 22.5335 29.2135 22.8097C28.708 22.94 28.1713 22.8613 27.7243 22.5915C27.2674 22.3188 26.9393 21.8739 26.8137 21.3568L26.1235 18.5472L24.7765 17.9885L25.5047 22.0458L28.3748 25.2622L30.7197 23.1848C31.5304 22.4642 32.7719 22.5372 33.4925 23.3479C33.4998 23.356 33.5069 23.3642 33.5139 23.3724C34.2253 24.2032 34.1425 25.4502 33.3275 26.1797L29.5688 29.5117C28.7784 30.1829 27.6074 30.1434 26.8641 29.4204L23.2584 25.7683L20.3786 27.5176L18.2859 31.7591C17.9569 32.4367 17.2695 32.8668 16.5162 32.8663C16.2081 32.8667 15.9043 32.7939 15.6299 32.6538C14.6566 32.1528 14.2639 30.9644 14.7471 29.982L17.097 25.222C17.2639 24.8834 17.5237 24.5994 17.8462 24.4032L21.3283 22.2867L20.956 20.5912C20.3988 21.4022 19.3274 21.6757 18.4497 21.231ZM21.2394 18.3591C21.4784 18.3882 21.673 18.5653 21.7244 18.8005L22.5217 22.4397C22.5734 22.676 22.4695 22.9191 22.2628 23.0449L18.4344 25.3716C18.2962 25.4565 18.1848 25.5787 18.1131 25.7241L15.7637 30.4841C15.5536 30.9089 15.7215 31.4236 16.1416 31.6429C16.5594 31.8442 17.0614 31.6735 17.2699 31.2593L19.4368 26.871C19.4842 26.7743 19.5583 26.6934 19.6504 26.6375L23.0538 24.5686C23.2784 24.4324 23.5671 24.4683 23.7514 24.6553L27.6722 28.6271C27.9866 28.9349 28.4838 28.9518 28.8185 28.6662L32.5772 25.3342C32.9315 25.0166 32.967 24.4741 32.6571 24.113C32.3592 23.7641 31.8349 23.7227 31.486 24.0206C31.4814 24.0246 31.4768 24.0285 31.4722 24.0326L28.7052 26.4845C28.4717 26.6915 28.1147 26.6708 27.9068 26.4381L24.5532 22.6811C24.4835 22.6029 24.4369 22.507 24.4184 22.404L23.4788 17.168C23.4247 16.8597 23.6308 16.566 23.939 16.5119C24.045 16.4933 24.1541 16.5053 24.2535 16.5463L26.8227 17.6122C26.9892 17.6813 27.1129 17.8254 27.1559 18.0004L27.917 21.0853C27.9705 21.3087 28.1119 21.5012 28.3091 21.6191C28.4971 21.7337 28.7235 21.7668 28.9364 21.7109C29.3937 21.59 29.6682 21.1233 29.5518 20.6649L28.6117 16.8557C28.5435 16.581 28.3452 16.3571 28.0807 16.2562L23.5689 14.3522L22.877 14.652C22.5893 14.7751 22.2563 14.6416 22.1331 14.3539C22.045 14.148 22.0865 13.9094 22.239 13.7453C22.7277 13.2288 22.9997 12.5445 22.9989 11.8334C22.9757 10.3294 21.7377 9.1291 20.2339 9.15226C18.73 9.17542 17.5296 10.4134 17.5528 11.9172C17.5757 13.4049 18.7882 14.5988 20.2761 14.5987C20.589 14.5984 20.843 14.8519 20.8433 15.1649C20.8433 15.2667 20.816 15.3668 20.764 15.4544L19.3536 17.8344C19.2426 18.0195 19.0367 18.1263 18.8215 18.1103L18.6611 18.0979C18.5874 18.0919 18.5157 18.0717 18.4497 18.0384L15.9513 16.773C15.7546 16.6716 15.525 16.6546 15.3155 16.726C15.1008 16.7976 14.9239 16.9523 14.8242 17.1555C14.6128 17.5809 14.7812 18.0971 15.2027 18.316L18.962 20.2206C19.3806 20.4206 19.8821 20.2481 20.0891 19.833L20.6631 18.6708C20.7673 18.453 21 18.3271 21.2394 18.3591Z" fill="#DDDDDD"/>
<path d="M4.13259 17.166L6.39926 14.8993C6.62437 14.6819 6.98307 14.6881 7.20052 14.9132C7.4126 15.1328 7.4126 15.481 7.20052 15.7006L5.90116 17H11.8999C12.2128 17 12.4666 17.2537 12.4666 17.5666C12.4666 17.8796 12.2128 18.1333 11.8999 18.1333H5.90116L7.20052 19.4327C7.42563 19.6501 7.43187 20.0088 7.21441 20.2339C6.99695 20.4591 6.63825 20.4653 6.41314 20.2478C6.40847 20.2433 6.40379 20.2386 6.39926 20.2339L4.13259 17.9673C3.91138 17.746 3.91138 17.3873 4.13259 17.166Z" fill="#DDDDDD"/>
<path d="M15.3 20.9668C15.613 20.9668 15.8667 21.2205 15.8667 21.5335V25.5001C15.8667 25.8131 15.613 26.0668 15.3 26.0668C14.9871 26.0668 14.7334 25.8131 14.7334 25.5001V21.5335C14.7334 21.2205 14.9871 20.9668 15.3 20.9668Z" fill="#DDDDDD"/>
<path d="M15.3 13.0332C15.613 13.0332 15.8667 13.2869 15.8667 13.5999V14.1665C15.8667 14.4795 15.613 14.7332 15.3 14.7332C14.9871 14.7332 14.7334 14.4795 14.7334 14.1665V13.5999C14.7334 13.2869 14.9871 13.0332 15.3 13.0332Z" fill="#DDDDDD"/>
</svg>
