<svg width="33" height="34" viewBox="0 0 33 34" fill="none" xmlns="http://www.w3.org/2000/svg">
<path fill-rule="evenodd" clip-rule="evenodd" d="M27.238 23.3966C24.4111 22.3974 20.7136 21.8238 16.765 21.766V10.1137H19.3964C19.7632 10.1137 20.0604 9.81647 20.0604 9.44968C20.0604 9.08289 19.7632 8.78562 19.3964 8.78562H16.765V1.32813H26.7732L24.5626 4.69229C24.4171 4.91355 24.4171 5.20019 24.5626 5.42146L26.7732 8.78562H24.7089C24.3421 8.78562 24.0448 9.08289 24.0448 9.44968C24.0448 9.81647 24.3421 10.1137 24.7089 10.1137H28.0043C28.2484 10.1137 28.4728 9.97989 28.5887 9.76511C28.7047 9.55033 28.6933 9.28911 28.5594 9.08522L25.9122 5.057L28.5594 1.02878C28.6933 0.824892 28.7047 0.563676 28.5887 0.348893C28.4728 0.13385 28.2484 0 28.0043 0H16.1012C15.7344 0 15.4371 0.297272 15.4371 0.664064V21.766C11.4886 21.8238 7.79108 22.3974 4.96414 23.3966C1.76288 24.5278 0 26.1203 0 27.8803C0 29.7026 1.87494 31.3334 5.27931 32.4722C5.62716 32.5887 6.00329 32.4009 6.11976 32.0533C6.23597 31.7054 6.04843 31.329 5.70057 31.2128C2.96261 30.2966 1.32813 29.051 1.32813 27.8803C1.32813 25.672 7.08836 23.2186 15.4369 23.0941V27.8803C15.4369 28.2471 15.7344 28.5444 16.101 28.5444C16.4677 28.5444 16.765 28.2471 16.765 27.8803V23.0941C25.1138 23.2186 30.874 25.6723 30.874 27.8803C30.874 30.1467 24.8069 32.6719 16.101 32.6719C14.2631 32.6719 12.466 32.557 10.7594 32.3303C10.3962 32.2821 10.0621 32.5378 10.0139 32.9013C9.96563 33.2649 10.2211 33.5985 10.5846 33.647C12.3487 33.8813 14.205 34.0001 16.101 34.0001C20.2978 34.0001 24.2531 33.419 27.238 32.364C30.439 31.2328 32.2022 29.6403 32.2022 27.8803C32.2022 26.1203 30.4393 24.5278 27.238 23.3966V23.3966Z" fill="#DDDDDD"/>
<path fill-rule="evenodd" clip-rule="evenodd" d="M8.05444 31.873C7.68869 31.873 7.39038 32.1714 7.39038 32.5371C7.39038 32.9029 7.68869 33.2012 8.05444 33.2012C8.42019 33.2012 8.7185 32.9029 8.7185 32.5371C8.7185 32.1714 8.42019 31.873 8.05444 31.873Z" fill="#DDDDDD"/>
<path fill-rule="evenodd" clip-rule="evenodd" d="M21.3884 9.4502C21.3884 9.81596 21.6867 10.1143 22.0525 10.1143C22.4183 10.1143 22.7166 9.81596 22.7166 9.4502C22.7166 9.08444 22.4183 8.78613 22.0525 8.78613C21.6867 8.78613 21.3884 9.08444 21.3884 9.4502Z" fill="#DDDDDD"/>
</svg>
