<svg width="32" height="25" viewBox="0 0 32 25" fill="none" xmlns="http://www.w3.org/2000/svg">
<path d="M30.5938 0H17.25C16.7578 0 16.3136 0.19581 16 0.508472C15.6864 0.195751 15.2422 0 14.75 0H1.40625C0.630875 0 0 0.593011 0 1.32185V2.85349C0 3.09689 0.209812 3.29411 0.46875 3.29411C0.727688 3.29411 0.9375 3.09689 0.9375 2.85349V1.32185C0.9375 1.07886 1.14775 0.881233 1.40625 0.881233H14.75C15.1808 0.881233 15.5312 1.21064 15.5312 1.61559V2.21289C15.3846 2.16396 15.2268 2.13711 15.0625 2.13711H3.5625C2.78712 2.13711 2.15625 2.73012 2.15625 3.45896V21.1568C2.15625 21.8857 2.78712 22.4787 3.5625 22.4787H15.0625C15.2268 22.4787 15.3846 22.4518 15.5312 22.4029V23.0002C15.5312 23.4051 15.1808 23.7345 14.75 23.7345H1.40625C1.14775 23.7345 0.9375 23.5369 0.9375 23.2939V4.9097C0.9375 4.66631 0.727688 4.46909 0.46875 4.46909C0.209812 4.46909 0 4.66631 0 4.9097V23.2939C0 24.0228 0.630875 24.6158 1.40625 24.6158H14.75C15.2422 24.6158 15.6864 24.42 16 24.1073C16.3136 24.42 16.7578 24.6158 17.25 24.6158H30.5938C31.3691 24.6158 32 24.0228 32 23.2939C32 18.7972 32 5.83664 32 1.32185C32 0.593011 31.3691 0 30.5938 0V0ZM15.5312 4.00961H14.3438C14.0848 4.00961 13.875 4.20683 13.875 4.45023C13.875 4.69362 14.0848 4.89084 14.3438 4.89084H15.5312V7.1468H14.3438C14.0848 7.1468 13.875 7.34402 13.875 7.58742C13.875 7.83081 14.0848 8.02803 14.3438 8.02803H15.5312V10.2839H14.3438C14.0848 10.2839 13.875 10.4812 13.875 10.7246C13.875 10.9679 14.0848 11.1652 14.3438 11.1652H15.5312V13.4211H14.3438C14.0848 13.4211 13.875 13.6183 13.875 13.8617C13.875 14.1051 14.0848 14.3024 14.3438 14.3024H15.5312V16.5583H14.3438C14.0848 16.5583 13.875 16.7555 13.875 16.9989C13.875 17.2423 14.0848 17.4395 14.3438 17.4395H15.5312V19.6954H14.3438C14.0848 19.6954 13.875 19.8927 13.875 20.1361C13.875 20.3795 14.0848 20.5767 14.3438 20.5767H15.5312V21.1567C15.5312 21.3997 15.321 21.5973 15.0625 21.5973H3.5625C3.304 21.5973 3.09375 21.3997 3.09375 21.1567V3.45896C3.09375 3.21597 3.304 3.01834 3.5625 3.01834H15.0625C15.321 3.01834 15.5312 3.21597 15.5312 3.45896V4.00961ZM31.0625 23.2939C31.0625 23.5369 30.8523 23.7345 30.5938 23.7345H17.25C16.8192 23.7345 16.4688 23.4051 16.4688 23.0002V22.4029C16.6154 22.4518 16.7732 22.4787 16.9375 22.4787H24.494C24.7529 22.4787 24.9627 22.2815 24.9627 22.0381C24.9627 21.7947 24.7529 21.5974 24.494 21.5974H16.9375C16.679 21.5974 16.4688 21.3998 16.4688 21.1568V20.5768H17.6562C17.9152 20.5768 18.125 20.3796 18.125 20.1362C18.125 19.8928 17.9152 19.6956 17.6562 19.6956H16.4688V17.4396H17.6562C17.9152 17.4396 18.125 17.2424 18.125 16.999C18.125 16.7556 17.9152 16.5584 17.6562 16.5584H16.4688V14.3024H17.6562C17.9152 14.3024 18.125 14.1052 18.125 13.8618C18.125 13.6184 17.9152 13.4212 17.6562 13.4212H16.4688V11.1652H17.6562C17.9152 11.1652 18.125 10.968 18.125 10.7246C18.125 10.4812 17.9152 10.284 17.6562 10.284H16.4688V8.02803H17.6562C17.9152 8.02803 18.125 7.83081 18.125 7.58742C18.125 7.34402 17.9152 7.1468 17.6562 7.1468H16.4688C16.4688 6.24636 16.4688 5.79041 16.4688 4.89084H17.6562C17.9152 4.89084 18.125 4.69362 18.125 4.45023C18.125 4.20683 17.9152 4.00961 17.6562 4.00961H16.4688V3.45896C16.4688 3.21597 16.679 3.01834 16.9375 3.01834H28.4375C28.696 3.01834 28.9062 3.21597 28.9062 3.45896V4.00961H26.5C26.1381 4.00961 25.8438 4.28632 25.8438 4.62647V6.73162V6.73168C25.8438 7.07184 26.1381 7.34855 26.5 7.34855H28.9062V21.1568C28.9062 21.3998 28.696 21.5974 28.4375 21.5974H26.6815C26.4226 21.5974 26.2127 21.7947 26.2127 22.0381C26.2127 22.2815 26.4226 22.4787 26.6815 22.4787H28.4375C29.2129 22.4787 29.8438 21.8857 29.8438 21.1568V7.34849H30.5261C30.7153 7.34849 30.8961 7.31441 31.0625 7.25308V23.2939ZM31.0625 5.96301C31.0625 6.24101 30.8218 6.46725 30.5261 6.46725H26.7812V4.89084H30.5261C30.8218 4.89084 31.0625 5.11709 31.0625 5.39509V5.96301ZM31.0625 4.10502C30.8961 4.04369 30.7153 4.00961 30.5261 4.00961H29.8438V3.45896C29.8438 2.73012 29.2129 2.13711 28.4375 2.13711H16.9375C16.7732 2.13711 16.6154 2.16402 16.4688 2.21289V1.61559C16.4688 1.21064 16.8192 0.881233 17.25 0.881233H30.5938C30.8523 0.881233 31.0625 1.07886 31.0625 1.32185V4.10502Z" fill="#DDDDDD"/>
<path d="M11.7923 4.00977H5.0625C4.59725 4.00977 4.21875 4.36555 4.21875 4.80288V7.23509C4.21875 7.67241 4.59725 8.0282 5.0625 8.0282H11.7923C12.2576 8.0282 12.6361 7.67241 12.6361 7.23509V4.80288C12.6361 4.36555 12.2576 4.00977 11.7923 4.00977ZM11.6986 7.14696H5.15625V4.891H11.6986V7.14696Z" fill="#DDDDDD"/>
<path d="M4.6875 10.2298H7.77081C8.02975 10.2298 8.23956 10.0324 8.23956 9.78871C8.23956 9.54507 8.02975 9.34766 7.77081 9.34766H4.6875C4.42856 9.34766 4.21875 9.54507 4.21875 9.78871C4.21875 10.0324 4.42856 10.2298 4.6875 10.2298Z" fill="#DDDDDD"/>
<path d="M12.1673 11.3447H4.6875C4.42856 11.3447 4.21875 11.5421 4.21875 11.7858C4.21875 12.0294 4.42856 12.2268 4.6875 12.2268H12.1673C12.4263 12.2268 12.6361 12.0294 12.6361 11.7858C12.6361 11.5421 12.4262 11.3447 12.1673 11.3447Z" fill="#DDDDDD"/>
<path d="M12.1673 13.3438H4.6875C4.42856 13.3438 4.21875 13.5412 4.21875 13.7848C4.21875 14.0284 4.42856 14.2259 4.6875 14.2259H12.1673C12.4263 14.2259 12.6361 14.0284 12.6361 13.7848C12.6361 13.5412 12.4262 13.3438 12.1673 13.3438Z" fill="#DDDDDD"/>
<path d="M12.1673 15.3408H4.6875C4.42856 15.3408 4.21875 15.5382 4.21875 15.7819C4.21875 16.0255 4.42856 16.2229 4.6875 16.2229H12.1673C12.4263 16.2229 12.6361 16.0255 12.6361 15.7819C12.6361 15.5382 12.4262 15.3408 12.1673 15.3408Z" fill="#DDDDDD"/>
<path d="M11.7923 17.2773H5.0625C4.59725 17.2773 4.21875 17.6331 4.21875 18.0705V19.784C4.21875 20.2213 4.59725 20.5771 5.0625 20.5771H11.7923C12.2576 20.5771 12.6361 20.2213 12.6361 19.784V18.0705C12.6361 17.6331 12.2576 17.2773 11.7923 17.2773V17.2773ZM11.6986 19.6959H5.15625V18.1586H11.6986V19.6959Z" fill="#DDDDDD"/>
<path d="M20.4062 9.9827H27.4896C27.7486 9.9827 27.9584 9.78528 27.9584 9.54164C27.9584 9.298 27.7486 9.10059 27.4896 9.10059H20.4062C20.1473 9.10059 19.9375 9.298 19.9375 9.54164C19.9375 9.78528 20.1473 9.9827 20.4062 9.9827Z" fill="#DDDDDD"/>
<path d="M20.4062 12.3157H27.4896C27.7486 12.3157 27.9584 12.1183 27.9584 11.8746C27.9584 11.631 27.7486 11.4336 27.4896 11.4336H20.4062C20.1473 11.4336 19.9375 11.631 19.9375 11.8746C19.9375 12.1183 20.1473 12.3157 20.4062 12.3157Z" fill="#DDDDDD"/>
<path d="M27.9584 14.2057C27.9584 13.9621 27.7486 13.7646 27.4896 13.7646H20.4062C20.1473 13.7646 19.9375 13.9621 19.9375 14.2057C19.9375 14.4493 20.1473 14.6468 20.4062 14.6468H27.4896C27.7486 14.6468 27.9584 14.4493 27.9584 14.2057Z" fill="#DDDDDD"/>
</svg>
