<svg width="34" height="34" viewBox="0 0 34 34" fill="none" xmlns="http://www.w3.org/2000/svg">
<g clip-path="url(#clip0)">
<path d="M17 6.27637C16.083 6.27637 15.198 6.54677 14.4409 7.0583C14.2136 7.21183 14.1539 7.52049 14.3074 7.74773C14.4609 7.97504 14.7695 8.03467 14.9968 7.88127C15.5892 7.48104 16.2818 7.26954 17 7.26954C18.9758 7.26954 20.5832 8.87697 20.5832 10.8528C20.5832 12.8287 18.9758 14.4361 17 14.4361C15.0241 14.4361 13.4168 12.8287 13.4168 10.8528C13.4168 10.268 13.5606 9.68805 13.8325 9.17566C13.961 8.93341 13.8689 8.63279 13.6267 8.50416C13.3843 8.37567 13.0839 8.46777 12.9552 8.70996C12.6075 9.36525 12.4236 10.1063 12.4236 10.8528C12.4236 13.3763 14.4766 15.4293 17 15.4293C19.5233 15.4293 21.5763 13.3763 21.5763 10.8528C21.5763 8.32932 19.5234 6.27637 17 6.27637Z" fill="#DDDDDD"/>
<path d="M33.9618 33.1858L30.1963 24.1381C30.1955 24.1363 30.1948 24.1343 30.194 24.1325L29.0608 21.4099C28.9838 21.2248 28.8029 21.1042 28.6023 21.1042H23.7183C24.6684 19.8191 25.459 18.5389 26.0765 17.2821C27.1708 15.0547 27.7257 12.8916 27.7257 10.8527C27.7257 4.93848 22.9142 0.126953 17 0.126953C11.0859 0.126953 6.27429 4.93848 6.27429 10.8528C6.27429 12.8916 6.82912 15.0548 7.92349 17.2821C8.541 18.539 9.33164 19.8191 10.2816 21.1042H5.3976C5.19705 21.1042 5.01616 21.2249 4.93913 21.41L2.85729 26.4121C2.75191 26.6653 2.8717 26.956 3.12491 27.0613C3.37805 27.1668 3.66878 27.0469 3.77416 26.7937L4.22028 25.7218C4.71952 25.7122 5.69629 25.6487 6.84379 25.3412C8.72316 24.8374 10.285 23.8764 11.4119 22.5447C11.443 22.5821 11.4734 22.6196 11.5047 22.657C11.869 23.0921 12.2323 23.5041 12.5881 23.8928C10.3283 24.6742 8.98227 26.0131 8.98227 27.4888C8.98227 28.051 9.17505 28.5848 9.52793 29.0726C7.99508 30.0159 6.32005 30.4245 4.53956 30.2872C3.64361 30.2181 2.9235 30.019 2.49319 29.872L3.01016 28.6298C3.11555 28.3766 2.99575 28.0858 2.74254 27.9805C2.4892 27.8749 2.19861 27.9949 2.09329 28.2481L0.0381491 33.1858C-0.0256673 33.339 -0.0086673 33.514 0.0835046 33.6521C0.17561 33.7902 0.330602 33.8731 0.496618 33.8731H20.0784C20.0788 33.8731 20.0793 33.8732 20.0798 33.8732C20.0802 33.8732 20.0805 33.8731 20.081 33.8731H33.5034C33.6695 33.8731 33.8245 33.7902 33.9166 33.6521C34.0087 33.5141 34.0256 33.3391 33.9618 33.1858ZM28.2711 22.0973L29.0085 23.8692C26.8531 24.0861 25.1941 25.2165 24.4267 25.841C23.8181 25.0345 22.7683 24.356 21.4153 23.8889C21.7701 23.5014 22.1322 23.0906 22.4953 22.6569C22.6515 22.4704 22.8035 22.2839 22.9532 22.0973H28.2711ZM6.61688 24.3738C5.83674 24.5856 5.13543 24.6727 4.64249 24.7076L5.7289 22.0973H10.4884C9.51352 23.1752 8.21601 23.9396 6.61688 24.3738ZM12.2662 22.0195C8.1346 17.0851 7.26746 13.2233 7.26746 10.8528C7.26746 5.48614 11.6335 1.12012 17 1.12012C22.3666 1.12012 26.7326 5.48614 26.7326 10.8528C26.7326 13.2201 25.8676 17.0765 21.7466 22.0041C19.7589 24.3809 17.7475 26.1166 16.9999 26.7332C16.2544 26.1187 14.2525 24.3918 12.2662 22.0195ZM20.6543 27.4887C20.6543 27.8943 19.3644 28.6838 16.9999 28.6838C14.6354 28.6838 13.3455 27.8943 13.3455 27.4887C13.3455 27.2038 13.9828 26.7298 15.1812 26.4727C16.0575 27.2671 16.646 27.7253 16.6962 27.764C16.7857 27.8333 16.8929 27.8678 17 27.8678C17.1072 27.8678 17.2145 27.8332 17.3039 27.764C17.354 27.7253 17.9425 27.267 18.8189 26.4728C20.0171 26.7298 20.6543 27.2038 20.6543 27.4887ZM25.0849 32.8801C25.8489 32.6365 26.5684 32.3564 27.2386 32.0384C27.4864 31.9209 27.592 31.6246 27.4744 31.3769C27.3568 31.1291 27.0606 31.0235 26.8129 31.141C24.9475 32.0261 22.6732 32.6109 20.0533 32.88H1.2411L2.11042 30.7912C2.59067 30.9602 3.39963 31.1904 4.41864 31.2738C4.65352 31.293 4.90679 31.3047 5.176 31.3047C6.56515 31.3047 8.37519 30.9938 10.2213 29.809C11.6309 30.9997 14.1147 31.775 16.9997 31.775C17.274 31.775 17.4963 31.5528 17.4963 31.2785C17.4963 31.0042 17.274 30.7819 16.9997 30.7819C15.0669 30.7819 13.2575 30.4065 11.905 29.725C10.6786 29.107 9.97525 28.2919 9.97525 27.4887C9.97525 26.4542 11.1366 25.4236 13.006 24.7989C13.1133 24.7631 13.1997 24.6938 13.2588 24.607C13.6314 24.9938 13.9896 25.3501 14.3253 25.6732C14.1691 25.722 14.0189 25.7748 13.877 25.8327C12.8936 26.2336 12.3521 26.8217 12.3521 27.4889C12.3521 28.156 12.8937 28.7441 13.877 29.1449C14.7191 29.4881 15.8282 29.6771 16.9996 29.6771C18.1711 29.6771 19.2801 29.4881 20.1223 29.1449C21.1056 28.7441 21.6472 28.156 21.6472 27.4889C21.6472 26.8217 21.1056 26.2336 20.1223 25.8327C19.9805 25.775 19.8303 25.7221 19.6743 25.6733C19.9849 25.3744 20.3145 25.0476 20.6572 24.6939C22.2473 25.162 23.4259 25.9183 23.8508 26.7814C23.8589 26.8022 23.8682 26.8226 23.8791 26.8423C23.9735 27.0528 24.0242 27.269 24.0242 27.4889C24.0242 28.6308 22.6184 29.7521 20.4427 30.3453C20.1782 30.4174 20.0221 30.6904 20.0942 30.955C20.1544 31.1759 20.3545 31.3211 20.573 31.3211C20.6162 31.3211 20.6601 31.3154 20.7039 31.3035C23.3645 30.5781 25.0172 29.1164 25.0172 27.4889C25.0172 27.2332 24.9775 26.9831 24.9012 26.7404C25.5018 26.2265 27.2048 24.9505 29.4099 24.8341L30.7293 28.0044C30.4986 28.3742 29.8488 29.2668 28.4853 30.192C28.2583 30.3459 28.1992 30.6547 28.3532 30.8817C28.4493 31.0233 28.6056 31.0995 28.7646 31.0995C28.8606 31.0995 28.9575 31.0717 29.043 31.0138C30.0904 30.3031 30.7661 29.6024 31.1786 29.0836L32.7588 32.8803H25.0849V32.8801Z" fill="#DDDDDD"/>
</g>
<defs>
<clipPath id="clip0">
<rect width="34" height="34" fill="white"/>
</clipPath>
</defs>
</svg>
