<svg width="34" height="34" viewBox="0 0 34 34" fill="none" xmlns="http://www.w3.org/2000/svg">
<path d="M29.1733 23.1648L29.1254 23.1164C28.8667 22.8565 28.4462 22.8556 28.1863 23.1144C27.9264 23.3731 27.9254 23.7936 28.1842 24.0535L28.2238 24.0935C28.3539 24.2265 28.5262 24.2933 28.6986 24.2933C28.866 24.2933 29.0337 24.2303 29.1628 24.1039C29.425 23.8475 29.4297 23.4271 29.1733 23.1648Z" fill="#DDDDDD"/>
<path d="M33.3359 32.6719H31.4766V28.8126C31.4766 27.5506 31.1761 26.2902 30.6074 25.1674C30.4418 24.8401 30.042 24.7093 29.7151 24.875C29.3878 25.0407 29.257 25.4402 29.4227 25.7674C29.8975 26.705 30.1485 27.7581 30.1485 28.8125V32.6719H3.85156V28.8084C3.85156 25.6636 6.08102 22.892 9.15271 22.2182L11.4235 21.72C11.8557 21.6252 12.2586 21.4577 12.621 21.2329C13.8376 22.2864 15.3746 22.8613 16.9999 22.8613C18.6194 22.8613 20.1512 22.2905 21.3656 21.2444C21.7231 21.4628 22.1193 21.626 22.5439 21.7188L24.8426 22.2214C25.4093 22.3452 25.957 22.541 26.4706 22.8032C26.5673 22.8526 26.6704 22.876 26.772 22.876C27.0136 22.876 27.2466 22.7437 27.364 22.5138C27.5308 22.1871 27.4011 21.7872 27.0745 21.6204C26.4596 21.3064 25.8041 21.0722 25.1263 20.9239L22.8277 20.4214C21.6663 20.1674 20.8233 19.1203 20.8233 17.9315V17.6754C22.3144 16.8263 23.3956 15.3378 23.6916 13.5857H24.0031C25.0481 13.5857 25.8984 12.7354 25.8984 11.6903V10.4341C25.8984 9.38905 25.0481 8.53878 24.0031 8.53878H23.7734V5.82164C23.7734 2.61156 21.1619 0 17.9518 0H16.0482C12.8381 0 10.2266 2.61156 10.2266 5.82164V8.53871H9.99686C8.95183 8.53871 8.10156 9.38898 8.10156 10.434V11.6902C8.10156 12.7353 8.95183 13.5856 9.99686 13.5856H10.3083C10.602 15.324 11.6686 16.803 13.1415 17.6553V17.9333C13.1415 19.1213 12.2993 20.1682 11.139 20.4228L8.86822 20.921C7.07638 21.314 5.45634 22.3177 4.30658 23.7471C3.15669 25.1765 2.52344 26.9739 2.52344 28.8084V32.6719H0.664062C0.297367 32.6719 0 32.9692 0 33.3359C0 33.7026 0.297367 34 0.664062 34H3.1875H30.8125H33.3359C33.7026 34 34 33.7026 34 33.3359C34 32.9692 33.7026 32.6719 33.3359 32.6719ZM23.7734 9.86684H24.0031C24.3159 9.86684 24.5703 10.1212 24.5703 10.434V11.6902C24.5703 12.003 24.3159 12.2575 24.0031 12.2575H23.7734V9.86684ZM10.2266 12.2575H9.99686C9.68409 12.2575 9.42969 12.003 9.42969 11.6902V10.434C9.42969 10.1212 9.68409 9.86684 9.99686 9.86684H10.2266V12.2575ZM17 21.5333C15.7559 21.5333 14.5766 21.1126 13.6236 20.3396C14.0992 19.7407 14.4003 19.0034 14.4585 18.2138C14.964 18.3574 15.4973 18.4344 16.0482 18.4344H17.9518C18.4903 18.4344 19.0118 18.3605 19.5072 18.2231C19.568 19.0165 19.8737 19.7567 20.3553 20.356C19.4059 21.1183 18.2351 21.5333 17 21.5333ZM11.5547 5.82164C11.5547 3.34389 13.5704 1.32812 16.0482 1.32812H17.9518C20.1981 1.32812 22.0647 2.98496 22.3938 5.14071C22.3418 5.16979 22.2926 5.20592 22.2484 5.25008C20.1277 7.37083 17.3081 8.53865 14.3091 8.53865H11.5547V5.82164ZM11.5547 12.6128V9.86684H14.3091C15.9663 9.86684 17.583 9.54523 19.114 8.91105C20.3328 8.40623 21.4493 7.72245 22.4453 6.87371V9.20278V12.6128C22.4453 15.0906 20.4296 17.1063 17.9518 17.1063H16.0482C13.5704 17.1063 11.5547 15.0905 11.5547 12.6128Z" fill="#DDDDDD"/>
<path d="M8.30668 24.6826C8.0791 24.3952 7.66154 24.3464 7.3738 24.574C6.07111 25.6049 5.32397 27.1486 5.32397 28.8089C5.32397 29.1756 5.62134 29.473 5.98804 29.473C6.35473 29.473 6.6521 29.1756 6.6521 28.8089C6.6521 27.5569 7.21556 26.3929 8.19804 25.6154C8.48558 25.3878 8.53425 24.9702 8.30668 24.6826Z" fill="#DDDDDD"/>
<path d="M10.3565 24.0405C10.2774 23.6824 9.92317 23.4563 9.56484 23.5352L9.53409 23.5421C9.17603 23.6216 8.95032 23.9764 9.02987 24.3344C9.0986 24.6439 9.37306 24.8545 9.67747 24.8545C9.72521 24.8545 9.77362 24.8493 9.82217 24.8386L9.85125 24.8321C10.2094 24.7531 10.4356 24.3987 10.3565 24.0405Z" fill="#DDDDDD"/>
</svg>
